<?xml version="1.0" encoding="utf-8"?>
<!-- Generator: Adobe Illustrator 22.1.0, SVG Export Plug-In . SVG Version: 6.00 Build 0)  -->
<svg version="1.1" id="Capa_1" xmlns="http://www.w3.org/2000/svg" xmlns:xlink="http://www.w3.org/1999/xlink" x="0px" y="0px"
	 viewBox="0 0 512 512" style="enable-background:new 0 0 512 512;" xml:space="preserve">
<style type="text/css">
	.st0{fill:#FFFFFF;}
</style>
<g>
	<g>
		<path class="st0" d="M375.1,141.9c-1.9-1.9-4.4-2.9-7.1-2.9s-5.2,1.1-7.1,2.9c-1.9,1.9-2.9,4.4-2.9,7.1c0,2.6,1.1,5.2,2.9,7.1
			s4.4,2.9,7.1,2.9s5.2-1.1,7.1-2.9c1.9-1.9,2.9-4.4,2.9-7.1S376.9,143.8,375.1,141.9z"/>
	</g>
</g>
<g>
	<g>
		<path class="st0" d="M150,282H70c-5.5,0-10,4.5-10,10v80c0,5.5,4.5,10,10,10h80c5.5,0,10-4.5,10-10v-80
			C160,286.5,155.5,282,150,282z M140,362H80v-60h60V362z"/>
	</g>
</g>
<g>
	<g>
		<path class="st0" d="M505.8,209.8c-3.7-1.5-8-0.7-10.9,2.2L393,313.8c0,0,0,0,0,0s0,0,0,0L274.2,432.6c0,0,0,0,0,0s0,0,0,0
			l-62.3,62.3c-2.9,2.9-3.7,7.2-2.2,10.9c1.5,3.7,5.2,6.2,9.2,6.2h283c5.5,0,10-4.5,10-10V219C512,215,509.6,211.3,505.8,209.8z
			 M492,492H243.1l38.2-38.2l9.5,9.5c2,2,4.5,2.9,7.1,2.9s5.1-1,7.1-2.9c3.9-3.9,3.9-10.2,0-14.1l-9.5-9.5l25.5-25.5l9.5,9.5
			c2,2,4.5,2.9,7.1,2.9s5.1-1,7.1-2.9c3.9-3.9,3.9-10.2,0-14.1l-9.5-9.5l25.5-25.5l9.5,9.5c2,2,4.5,2.9,7.1,2.9s5.1-1,7.1-2.9
			c3.9-3.9,3.9-10.2,0-14.1l-9.5-9.5l25.5-25.5l9.5,9.5c2,2,4.5,2.9,7.1,2.9s5.1-1,7.1-2.9c3.9-3.9,3.9-10.2,0-14.1l-9.5-9.5
			l25.5-25.5l9.5,9.5c2,2,4.5,2.9,7.1,2.9c2.6,0,5.1-1,7.1-2.9c3.9-3.9,3.9-10.2,0-14.1l-9.5-9.5l38.2-38.2V492z"/>
	</g>
</g>
<g>
	<g>
		<path class="st0" d="M455.8,330.5c-3.7-1.5-8-0.7-10.9,2.2L332.6,444.9c-2.9,2.9-3.7,7.2-2.2,10.9s5.2,6.2,9.2,6.2H452
			c5.5,0,10-4.5,10-10V339.7C462,335.7,459.6,332,455.8,330.5z M442,442h-78.1l78.1-78.1V442z"/>
	</g>
</g>
<g>
	<g>
		<path class="st0" d="M463.1,149.3c-2.8-2.8-6.9-3.7-10.5-2.3l-68.3,25c-1.4,0.5-2.6,1.3-3.6,2.3l-19.2,19.2L236.1,68.1
			c-1.9-1.9-4.4-2.9-7.1-2.9s-5.2,1.1-7.1,2.9L71,219H34.1L229,24.1l106.9,106.9c3.9,3.9,10.2,3.9,14.1,0c3.9-3.9,3.9-10.2,0-14.1
			l-114-114c-3.9-3.9-10.2-3.9-14.1,0l-219,219c-2.9,2.9-3.7,7.2-2.2,10.9C2.3,236.6,6,239,10,239h10v263c0,5.5,4.5,10,10,10h159
			c5.5,0,10-4.5,10-10s-4.5-10-10-10H40V239h35.2c2.7,0,5.2-1.1,7.1-2.9L229,89.3l118.3,118.3L199,355.9V266h70c5.5,0,10-4.5,10-10
			c0-5.5-4.5-10-10-10h-80c-5.5,0-10,4.5-10,10v116c0,1.2,0.2,2.3,0.6,3.3l-9,9c-15.8,15.8-15.8,41.6,0,57.4
			c7.9,7.9,18.3,11.9,28.7,11.9c10.4,0,20.8-4,28.7-11.9l84.3-84.3c3.9-3.9,3.9-10.2,0-14.1s-10.2-3.9-14.1,0l-63.9,63.9L205.2,378
			l182.7-182.7l29.1,29.1l-69.8,69.8c-3.9,3.9-3.9,10.2,0,14.1c3.9,3.9,10.2,3.9,14.1,0l76.7-76.7c1-1,1.8-2.3,2.3-3.6l25-68.3
			C466.7,156.1,465.8,152,463.1,149.3z M220.2,421.3l-6.3,6.3c-3.9,3.9-9.1,6-14.6,6s-10.7-2.1-14.6-6c-3.9-3.9-6-9.1-6-14.6
			s2.1-10.7,6-14.6l6.3-6.3L220.2,421.3z M427.1,206.2l-20.9-20.9l33-12.1L427.1,206.2z"/>
	</g>
</g>
<g>
	<g>
		<path class="st0" d="M336.7,318.9c-1.9-1.9-4.4-2.9-7.1-2.9s-5.2,1.1-7.1,2.9c-1.9,1.9-2.9,4.4-2.9,7.1c0,2.6,1.1,5.2,2.9,7.1
			c1.9,1.9,4.4,2.9,7.1,2.9c2.6,0,5.2-1.1,7.1-2.9c1.9-1.9,2.9-4.5,2.9-7.1C339.6,323.3,338.5,320.8,336.7,318.9z"/>
	</g>
</g>
<g>
	<g>
		<path class="st0" d="M229,151c-21,0-38,17-38,38s17,38,38,38s38-17,38-38S250,151,229,151z M229,207c-9.9,0-18-8.1-18-18
			c0-9.9,8.1-18,18-18s18,8.1,18,18S238.9,207,229,207z"/>
	</g>
</g>
</svg>
